<?xml version="1.0" standalone="no"?>
<!DOCTYPE svg PUBLIC "-//W3C//DTD SVG 20010904//EN"
 "http://www.w3.org/TR/2001/REC-SVG-20010904/DTD/svg10.dtd">
<svg version="1.0" xmlns="http://www.w3.org/2000/svg"
 width="780.000000pt" height="780.000000pt" viewBox="0 0 780.000000 780.000000"
 preserveAspectRatio="xMidYMid meet">
<metadata>
Created by potrace 1.14, written by Peter Selinger 2001-2017
</metadata>
<g transform="translate(0.000000,780.000000) scale(0.100000,-0.100000)"
fill="#000000" stroke="none">
<path d="M65 7364 c-17 -9 -38 -29 -48 -46 -16 -28 -17 -227 -17 -3413 0
-3104 1 -3387 16 -3418 10 -20 31 -41 51 -51 31 -15 290 -16 3106 -16 2437 0
3077 3 3097 13 13 7 35 28 47 46 l23 34 0 493 c0 324 -4 502 -11 521 -14 37
-37 58 -83 73 -58 19 -123 -15 -147 -78 -5 -13 -9 -210 -9 -438 l0 -414 -2920
0 -2920 0 0 3230 0 3230 3010 2 3010 3 31 31 c58 58 47 151 -24 194 -32 20
-74 20 -3107 19 -2722 0 -3078 -2 -3105 -15z"/>
<path d="M1705 6833 c-27 -7 -65 -42 -76 -71 -12 -31 -12 -3693 0 -3724 38
-97 164 -110 223 -23 11 16 14 317 18 1712 l5 1692 101 -97 c55 -53 170 -162
254 -242 84 -80 181 -172 215 -205 34 -33 128 -123 209 -200 82 -77 174 -165
206 -195 31 -30 94 -90 139 -133 l81 -78 -1 -63 c-1 -35 2 -69 5 -75 4 -6 4
-11 -1 -11 -8 0 -7 -108 1 -142 2 -10 1 -18 -2 -18 -8 0 -6 -125 2 -146 3 -8
2 -14 -2 -14 -7 0 -6 -110 2 -142 2 -10 1 -18 -2 -18 -8 0 -6 -194 2 -222 2
-10 1 -18 -2 -18 -8 0 -6 -165 2 -185 2 -7 2 -15 -1 -18 -7 -8 -5 -256 2 -268
4 -5 3 -9 -2 -9 -8 0 -8 -162 1 -185 2 -7 2 -15 -1 -18 -7 -8 -5 -256 2 -268
4 -5 3 -9 -2 -9 -9 0 -8 -204 1 -227 3 -7 2 -13 -2 -13 -7 0 -6 -110 2 -142 2
-10 1 -18 -2 -18 -8 0 -6 -125 2 -146 3 -8 2 -14 -2 -14 -7 0 -6 -110 2 -142
2 -10 1 -18 -2 -18 -6 0 -7 -78 -2 -105 2 -6 2 -14 1 -20 -5 -26 -1 -257 4
-266 4 -5 3 -9 -2 -9 -8 0 -8 -162 1 -185 2 -7 2 -16 -1 -19 -5 -5 -7 -118 -3
-141 1 -6 2 -14 1 -20 -2 -9 -1 -231 1 -260 0 -5 -1 -14 -3 -20 -8 -25 16 -77
48 -106 32 -28 42 -31 83 -27 55 6 93 31 109 74 8 22 11 506 11 1723 l0 1693
68 -64 c37 -36 86 -83 108 -104 36 -34 263 -250 448 -427 105 -100 308 -294
376 -358 36 -34 139 -132 230 -219 91 -87 181 -172 200 -190 19 -18 114 -108
210 -200 96 -92 193 -185 216 -206 23 -22 117 -112 210 -201 93 -88 189 -180
214 -203 25 -23 126 -119 224 -214 310 -295 360 -343 407 -387 109 -104 376
-359 429 -409 47 -45 269 -257 415 -395 193 -183 380 -362 435 -415 94 -92
110 -101 167 -96 40 4 53 10 80 42 l33 37 0 1850 c0 1667 -2 1852 -16 1882
-40 85 -151 93 -209 17 -20 -27 -20 -47 -25 -1719 l-5 -1691 -116 111 c-65 62
-181 173 -259 247 -79 74 -175 166 -214 203 -39 38 -133 128 -210 200 -76 73
-160 152 -186 177 -25 25 -86 82 -133 128 l-87 83 0 1840 c0 2026 4 1884 -61
1922 -51 29 -103 23 -147 -17 l-37 -34 -3 -1737 -2 -1737 -68 65 c-37 36 -83
80 -103 98 -52 50 -404 385 -470 449 -31 30 -121 116 -200 190 -78 74 -163
155 -189 180 -26 25 -121 115 -210 200 -90 85 -184 175 -210 200 -56 55 -344
328 -420 400 -30 28 -131 124 -224 213 -93 89 -186 178 -206 197 -42 39 -300
285 -420 400 -74 70 -325 310 -431 410 -26 25 -109 104 -185 177 -77 73 -168
160 -204 194 -36 34 -113 107 -171 163 -58 55 -175 166 -258 246 -84 80 -187
178 -229 218 -94 90 -119 101 -187 85z"/>
</g>
</svg>
